<!-- Generator: Adobe Illustrator 22.0.1, SVG Export Plug-In  -->
<svg version="1.1"
	 xmlns="http://www.w3.org/2000/svg" xmlns:xlink="http://www.w3.org/1999/xlink" xmlns:a="http://ns.adobe.com/AdobeSVGViewerExtensions/3.0/"
	 x="0px" y="0px" width="277.423px" height="222.334px" viewBox="0 0 277.423 222.334"
	 style="enable-background:new 0 0 277.423 222.334;" xml:space="preserve">
<style type="text/css">
	.st0{fill:#FFFFFF;}
</style>
<defs>
</defs>
<path class="st0" d="M271.245,222.334c-0.932,0-1.837-0.215-2.69-0.637c-21.041-10.423-92.406-49.196-127.306-110.485
	c-0.535-0.94-1.483-1.501-2.537-1.501c-1.054,0-2.003,0.561-2.538,1.501c-34.9,61.29-106.265,100.062-127.306,110.485
	c-0.854,0.422-1.759,0.637-2.69,0.637c-3.407,0-6.179-2.836-6.179-6.322V6.574C0,3.16,2.715,0.329,6.053,0.263
	C14.945,0.089,37.211,0,72.233,0c18.668,0,41.036,0.025,66.481,0.075l13.461-0.025c3.073,0,5.638,2.246,6.102,5.342
	c12.098,80.783,51.838,119.378,68.363,132.222c0.519,0.404,1.12,0.617,1.738,0.617c1.439-0.001,2.992-1.194,2.992-3.121V6.346
	c0-3.481,2.772-6.313,6.18-6.313c16.702,0.04,28.084,0.118,33.831,0.231c3.332,0.066,6.043,2.892,6.043,6.3v209.448
	c0,1.72-0.66,3.325-1.859,4.518C274.412,221.676,272.837,222.334,271.245,222.334z M48.247,44.574c-1.639,0-2.972,1.393-2.972,3.106
	v87.027c0,1.926,1.554,3.118,2.993,3.118c0.633,0,1.246-0.222,1.772-0.641c15.812-12.607,53.439-46.508,61.309-88.923
	c0.174-0.936-0.072-1.889-0.674-2.613c-0.567-0.682-1.388-1.074-2.252-1.074H48.247z"/>
</svg>